<svg version="1.1" xmlns="http://www.w3.org/2000/svg" viewBox="0 0 1806.0557454427087 782.2220535278329" width="5418.167236328126" height="2346.666160583499">
  <!-- svg-source:excalidraw -->
  
  <defs>
    <style class="style-fonts">
      @font-face {
        font-family: "Virgil";
        src: url("https://file%2B.vscode-resource.vscode-cdn.net/c%3A/Users/99211/.vscode/extensions/pomdtr.excalidraw-editor-3.6.1/public//dist/excalidraw-assets/Virgil.woff2");
      }
      @font-face {
        font-family: "Cascadia";
        src: url("https://file%2B.vscode-resource.vscode-cdn.net/c%3A/Users/99211/.vscode/extensions/pomdtr.excalidraw-editor-3.6.1/public//dist/excalidraw-assets/Cascadia.woff2");
      }
    </style>
    
  </defs>
  <rect x="0" y="0" width="1806.0557454427087" height="782.2220535278329" fill="#ffffff"></rect><g stroke-linecap="round" transform="translate(10 229.99990844726568) rotate(0 143.99999999999997 81.33332824707028)"><path d="M32 0 M32 0 C123.21 -1.02, 212.25 -1.53, 256 0 M32 0 C114.63 -0.8, 195.87 -0.96, 256 0 M256 0 C276.13 0.46, 286.65 11.3, 288 32 M256 0 C278.64 -2.21, 288.46 12.71, 288 32 M288 32 C289.64 53.63, 288.57 73.55, 288 130.67 M288 32 C288.7 59.53, 288.38 87.98, 288 130.67 M288 130.67 C287.6 150.21, 277.84 162.79, 256 162.67 M288 130.67 C290.03 151.97, 275.89 164.39, 256 162.67 M256 162.67 C206.02 161.28, 154.09 161.91, 32 162.67 M256 162.67 C190.4 160.86, 124.75 162.15, 32 162.67 M32 162.67 C11.03 164.09, 1.9 151.64, 0 130.67 M32 162.67 C9.8 161.17, 1.18 153.26, 0 130.67 M0 130.67 C-1.65 102.47, 0.21 75.55, 0 32 M0 130.67 C-0.13 108.04, -1.34 85.38, 0 32 M0 32 C0.62 12.62, 12.27 -0.23, 32 0 M0 32 C-0.46 10.21, 11.25 -1.51, 32 0" stroke="#1e1e1e" stroke-width="1" fill="none"></path></g><g transform="translate(82.10803222656247 288.83323669433594) rotate(0 71.8919677734375 22.5)"><text x="71.8919677734375" y="0" font-family="Virgil, Segoe UI Emoji" font-size="36px" fill="#1e1e1e" text-anchor="middle" style="white-space: pre;" direction="ltr" dominant-baseline="text-before-edge">Request</text></g><g stroke-linecap="round" transform="translate(456.00021362304693 210.00009155273438) rotate(0 108.99999999999994 105.33332824707031)"><path d="M157.97 10.51 C169.95 14.34, 181.07 25.14, 189.86 34.63 C198.66 44.12, 206.01 55.64, 210.74 67.45 C215.47 79.25, 218.37 92.64, 218.26 105.45 C218.14 118.26, 214.78 132.62, 210.05 144.3 C205.32 155.99, 198.64 166.4, 189.88 175.58 C181.11 184.76, 169.42 193.48, 157.47 199.39 C145.51 205.3, 131.35 209.7, 118.14 211.05 C104.93 212.39, 90.85 211.07, 78.22 207.44 C65.59 203.81, 52.59 197.02, 42.34 189.27 C32.09 181.51, 23.36 171.76, 16.72 160.92 C10.07 150.08, 5.06 136.73, 2.47 124.22 C-0.12 111.72, -1.17 98.44, 1.17 85.87 C3.52 73.29, 9.66 59.52, 16.55 48.78 C23.44 38.03, 32.04 29.01, 42.52 21.38 C52.99 13.75, 66.74 6.34, 79.41 2.98 C92.07 -0.38, 103.26 -1.39, 118.5 1.21 C133.73 3.82, 160.73 14.22, 170.81 18.61 C180.89 23, 180.28 26.07, 178.98 27.56 M152.14 6.88 C164.24 10.14, 176.49 19.92, 185.62 28.89 C194.74 37.85, 201.27 48.84, 206.87 60.65 C212.48 72.47, 218.27 87.02, 219.24 99.8 C220.2 112.58, 216.88 125.57, 212.66 137.32 C208.43 149.06, 201.76 160.4, 193.87 170.26 C185.98 180.11, 176.83 189.97, 165.33 196.44 C153.83 202.9, 138.07 206.93, 124.86 209.06 C111.65 211.18, 98.93 211.69, 86.08 209.16 C73.23 206.63, 58.76 201.18, 47.75 193.89 C36.74 186.6, 27.53 175.95, 20.03 165.43 C12.54 154.92, 6.12 142.98, 2.8 130.79 C-0.53 118.59, -1.75 104.75, 0.11 92.25 C1.96 79.75, 7.61 67.11, 13.93 55.78 C20.25 44.46, 28.15 32.6, 38.05 24.3 C47.95 16.01, 60.81 10.26, 73.32 6.02 C85.83 1.78, 100.34 -1.49, 113.11 -1.13 C125.88 -0.77, 143.64 6.45, 149.92 8.18 C156.2 9.9, 151.17 7.44, 150.8 9.22" stroke="#1e1e1e" stroke-width="1" fill="none"></path></g><g transform="translate(505.3332214355469 295.99993896484375) rotate(0 67.76997375488278 22.5)"><text x="0" y="0" font-family="Virgil, Segoe UI Emoji" font-size="36px" fill="#1e1e1e" text-anchor="start" style="white-space: pre;" direction="ltr" dominant-baseline="text-before-edge">Handler1</text></g><g stroke-linecap="round"><g transform="translate(295.33331298828125 309.99993896484375) rotate(0 77.49853474630258 2.2429314051620395)"><path d="M-1.18 0.21 C24.98 1.18, 129.99 4.62, 156.18 5.21 M0.4 -0.72 C26.43 -0.07, 128.63 2.4, 154.97 3.28" stroke="#1e1e1e" stroke-width="1" fill="none"></path></g><g transform="translate(295.33331298828125 309.99993896484375) rotate(0 77.49853474630258 2.2429314051620395)"><path d="M126.86 11.93 C133.82 9.59, 138.07 9.79, 154.83 1.86 M127.25 12.99 C134.95 9.12, 145.1 5.97, 155.46 3.55" stroke="#1e1e1e" stroke-width="1" fill="none"></path></g><g transform="translate(295.33331298828125 309.99993896484375) rotate(0 77.49853474630258 2.2429314051620395)"><path d="M127.43 -8.59 C134.16 -6.13, 138.27 -1.12, 154.83 1.86 M127.83 -7.53 C135.22 -4.64, 145.17 -1.03, 155.46 3.55" stroke="#1e1e1e" stroke-width="1" fill="none"></path></g></g><mask></mask><g mask="url(#mask-DM2PMLYw95Rmm0GYPIqmA)" stroke-linecap="round"><g transform="translate(664.0852607733248 363.2170646804989) rotate(0 164.68019567922084 53.891616642960116)"><path d="M0.32 -1.03 C55.07 17.2, 273.32 90.49, 327.92 108.82 M-0.97 1.04 C54.23 18.96, 275.69 89.31, 330.33 106.94" stroke="#1e1e1e" stroke-width="1" fill="none"></path></g><g transform="translate(664.0852607733248 363.2170646804989) rotate(0 164.68019567922084 53.891616642960116)"><path d="M298.63 107.15 C308.75 106.79, 316.5 108.77, 331.18 105.81 M300.83 108.52 C307.32 108.03, 312.69 106.77, 330.17 106.66" stroke="#1e1e1e" stroke-width="1" fill="none"></path></g><g transform="translate(664.0852607733248 363.2170646804989) rotate(0 164.68019567922084 53.891616642960116)"><path d="M304.88 87.61 C313.32 92.22, 319.48 99.16, 331.18 105.81 M307.08 88.97 C312.28 92.77, 316.27 95.83, 330.17 106.66" stroke="#1e1e1e" stroke-width="1" fill="none"></path></g></g><mask id="mask-DM2PMLYw95Rmm0GYPIqmA"><rect x="0" y="0" fill="#fff" width="1092.5918289990839" height="571.5612052349433"></rect><rect x="718.9345837045637" y="394.8891349577211" fill="#000" width="218.80792236328125" height="45" opacity="1"></rect></mask><g transform="translate(718.9345837045637 394.88913495772124) rotate(0 109.83087274798191 22.21954636573787)"><text x="109.40396118164062" y="0" font-family="Virgil, Segoe UI Emoji" font-size="36px" fill="#1e1e1e" text-anchor="middle" style="white-space: pre;" direction="ltr" dominant-baseline="text-before-edge">next handler</text></g><g transform="translate(687.3333435058594 304.66656494140625) rotate(0 42.5159912109375 22.5)"><text x="0" y="0" font-family="Virgil, Segoe UI Emoji" font-size="36px" fill="#1e1e1e" text-anchor="start" style="white-space: pre;" direction="ltr" dominant-baseline="text-before-edge">+(or)</text></g><g stroke-linecap="round" transform="translate(734.6665344238281 10) rotate(0 124.66677856445312 109.99998474121094)"><path d="M147.7 2.27 C161.43 2.63, 176.51 8.91, 188.76 15.31 C201.01 21.72, 212.35 30.89, 221.19 40.68 C230.03 50.48, 237.17 62.52, 241.78 74.08 C246.38 85.65, 248.7 97.66, 248.81 110.07 C248.91 122.47, 247.44 136.67, 242.41 148.53 C237.39 160.4, 228.16 171.61, 218.67 181.27 C209.18 190.93, 197.54 200.15, 185.46 206.49 C173.38 212.84, 160.23 217.38, 146.2 219.34 C132.17 221.29, 115.39 220.6, 101.29 218.2 C87.19 215.81, 73.85 211.17, 61.59 204.95 C49.33 198.73, 36.73 190.61, 27.72 180.87 C18.71 171.14, 12.23 158.45, 7.54 146.54 C2.86 134.62, -0.28 121.93, -0.39 109.38 C-0.49 96.84, 1.73 83.19, 6.92 71.28 C12.12 59.37, 21.45 47.42, 30.77 37.95 C40.1 28.47, 50.72 20.65, 62.88 14.42 C75.04 8.2, 88.28 2.25, 103.72 0.58 C119.15 -1.08, 145.5 3.17, 155.5 4.44 C165.5 5.72, 164.1 6.59, 163.73 8.25 M80.47 5.72 C92.38 0.13, 109.52 0.94, 123.8 1.04 C138.09 1.14, 153.09 2.12, 166.18 6.31 C179.27 10.51, 191.63 18.08, 202.35 26.22 C213.07 34.36, 223.09 44.61, 230.49 55.13 C237.88 65.65, 243.71 77.28, 246.72 89.36 C249.73 101.44, 250.99 115.42, 248.55 127.59 C246.1 139.77, 238.99 151.54, 232.06 162.41 C225.13 173.28, 217.41 184.42, 206.95 192.82 C196.5 201.23, 182.94 208.16, 169.32 212.82 C155.71 217.49, 139.43 220.63, 125.25 220.8 C111.08 220.97, 97.36 218.33, 84.29 213.82 C71.21 209.31, 57.78 201.53, 46.8 193.75 C35.82 185.97, 25.64 177.77, 18.39 167.14 C11.14 156.51, 6.2 142.62, 3.32 129.98 C0.43 117.33, -0.9 103.34, 1.09 91.25 C3.08 79.16, 8.04 68.33, 15.25 57.44 C22.47 46.56, 33.71 34.1, 44.37 25.96 C55.04 17.82, 72.87 11.2, 79.25 8.6 C85.63 6, 81.81 8.72, 82.65 10.36" stroke="#1e1e1e" stroke-width="1" fill="none"></path></g><g transform="translate(787.3332214355469 63.33322143554699) rotate(0 77.03997039794922 67.5)"><text x="0" y="0" font-family="Virgil, Segoe UI Emoji" font-size="36px" fill="#1e1e1e" text-anchor="start" style="white-space: pre;" direction="ltr" dominant-baseline="text-before-edge">Process </text><text x="0" y="45" font-family="Virgil, Segoe UI Emoji" font-size="36px" fill="#1e1e1e" text-anchor="start" style="white-space: pre;" direction="ltr" dominant-baseline="text-before-edge">    &amp;</text><text x="0" y="90" font-family="Virgil, Segoe UI Emoji" font-size="36px" fill="#1e1e1e" text-anchor="start" style="white-space: pre;" direction="ltr" dominant-baseline="text-before-edge"> return</text></g><g stroke-linecap="round"><g transform="translate(629.9999694824219 228.6665649414063) rotate(0 58.50754068684296 -31.515838174116794)"><path d="M1.1 0.78 C20.47 -9.47, 97.45 -51.51, 116.8 -62.03 M0.22 0.14 C19.39 -10.42, 96.51 -53.05, 115.92 -63.81" stroke="#1e1e1e" stroke-width="1" fill="none"></path></g><g transform="translate(629.9999694824219 228.6665649414063) rotate(0 58.50754068684296 -31.515838174116794)"><path d="M97.52 -40.96 C104.24 -48.36, 110.64 -56.32, 117.72 -62.6 M97.11 -42 C101.3 -45.97, 105.43 -50.33, 115.81 -63.02" stroke="#1e1e1e" stroke-width="1" fill="none"></path></g><g transform="translate(629.9999694824219 228.6665649414063) rotate(0 58.50754068684296 -31.515838174116794)"><path d="M87.59 -58.91 C97.69 -60.15, 107.54 -61.86, 117.72 -62.6 M87.17 -59.95 C93.45 -60.05, 99.71 -60.58, 115.81 -63.02" stroke="#1e1e1e" stroke-width="1" fill="none"></path></g></g><mask></mask><g stroke-linecap="round" transform="translate(987.0558980305993 405.5555953979498) rotate(0 109 105.33332824707031)"><path d="M75.47 4.86 C86.77 -0.25, 101.47 0.09, 114.58 0.8 C127.68 1.5, 142.06 3.9, 154.1 9.1 C166.15 14.3, 177.82 22.83, 186.86 32 C195.9 41.17, 203.27 52.31, 208.37 64.11 C213.46 75.92, 216.74 90.03, 217.44 102.83 C218.15 115.63, 216.81 129.19, 212.61 140.92 C208.41 152.65, 200.93 163.81, 192.25 173.2 C183.56 182.6, 172.06 191.13, 160.49 197.28 C148.93 203.42, 136 208.24, 122.87 210.09 C109.74 211.95, 94.62 211.6, 81.72 208.43 C68.83 205.27, 56.12 198.69, 45.51 191.09 C34.91 183.5, 25.34 173.35, 18.11 162.87 C10.87 152.4, 5.07 140.59, 2.1 128.26 C-0.87 115.94, -1.93 101.47, 0.29 88.94 C2.51 76.42, 8.79 64.14, 15.44 53.14 C22.09 42.13, 29.22 31.12, 40.19 22.9 C51.16 14.67, 73.14 6.84, 81.27 3.79 C89.41 0.74, 88.53 3.09, 88.98 4.57 M92.42 2.88 C104.32 -1.05, 117.83 -0.85, 130.47 1.47 C143.11 3.79, 157.01 9.9, 168.26 16.79 C179.51 23.69, 190.51 32.67, 197.97 42.84 C205.44 53, 209.75 65.17, 213.05 77.79 C216.34 90.4, 218.85 105.61, 217.74 118.51 C216.63 131.41, 212.44 144.27, 206.41 155.21 C200.38 166.14, 191.35 175.78, 181.57 184.11 C171.78 192.43, 159.99 200.74, 147.69 205.14 C135.38 209.54, 120.93 210.85, 107.74 210.49 C94.55 210.13, 80.82 207.87, 68.55 202.98 C56.28 198.09, 43.72 189.79, 34.1 181.15 C24.47 172.5, 16.33 162.27, 10.79 151.12 C5.25 139.97, 1.84 126.85, 0.85 114.24 C-0.13 101.63, 0.92 87.89, 4.91 75.47 C8.89 63.06, 16.49 49.95, 24.76 39.74 C33.03 29.53, 43.67 20.55, 54.53 14.21 C65.4 7.86, 83.67 3.31, 89.95 1.66 C96.23 0.01, 91.57 2.58, 92.23 4.32" stroke="#1e1e1e" stroke-width="1" fill="none"></path></g><g stroke-linecap="round" transform="translate(1516.0557454427087 604.2220535278329) rotate(0 140 84)"><path d="M127.12 0.92 C142.04 -1.21, 160.68 0.04, 176.2 2.46 C191.72 4.88, 207.3 9.85, 220.24 15.43 C233.19 21.02, 244.79 28, 253.88 35.98 C262.97 43.97, 270.4 53.99, 274.78 63.36 C279.16 72.74, 281.45 82.95, 280.17 92.25 C278.89 101.54, 274.04 110.72, 267.11 119.13 C260.17 127.55, 249.87 135.86, 238.56 142.74 C227.24 149.62, 213.79 156.13, 199.21 160.43 C184.63 164.74, 167.13 167.86, 151.07 168.57 C135.01 169.29, 118.15 167.53, 102.86 164.75 C87.58 161.97, 72.39 157.31, 59.37 151.89 C46.35 146.47, 34 140.03, 24.73 132.24 C15.46 124.45, 7.63 114.39, 3.76 105.15 C-0.11 95.91, -0.01 86.36, 1.51 76.82 C3.04 67.27, 6.38 56.51, 12.93 47.86 C19.47 39.22, 29.29 31.53, 40.79 24.94 C52.29 18.34, 66.64 12.57, 81.93 8.28 C97.23 4, 123.29 0.32, 132.57 -0.79 C141.85 -1.89, 137.3 -0.02, 137.63 1.66 M205.9 9.74 C220.54 12.86, 234.4 20.1, 244.84 27.11 C255.27 34.12, 262.58 42.59, 268.51 51.82 C274.43 61.05, 279.46 72.61, 280.36 82.48 C281.27 92.35, 278.84 102.25, 273.94 111.06 C269.05 119.86, 260.76 127.78, 251.01 135.29 C241.25 142.8, 228.95 151, 215.43 156.12 C201.91 161.25, 185.57 164.16, 169.89 166.04 C154.2 167.93, 137.26 168.82, 121.32 167.41 C105.38 166, 88.45 161.99, 74.26 157.57 C60.06 153.16, 46.75 147.73, 36.15 140.92 C25.56 134.11, 16.68 125.56, 10.68 116.72 C4.68 107.87, 0.57 97.73, 0.17 87.87 C-0.23 78, 3.18 66.89, 8.28 57.53 C13.38 48.18, 21.38 39.17, 30.79 31.74 C40.2 24.31, 51.25 17.79, 64.75 12.94 C78.25 8.09, 95.8 4.61, 111.78 2.64 C127.77 0.67, 144.97 -0.15, 160.64 1.13 C176.31 2.42, 198.3 8.65, 205.82 10.33 C213.33 12, 206.91 10.05, 205.73 11.2" stroke="#1e1e1e" stroke-width="1" fill="none"></path></g><g transform="translate(1568.5988286083302 665.8250839081629) rotate(0 87.46196746826172 22.5)"><text x="87.46196746826172" y="0" font-family="Virgil, Segoe UI Emoji" font-size="36px" fill="#1e1e1e" text-anchor="middle" style="white-space: pre;" direction="ltr" dominant-baseline="text-before-edge">Handlers...</text></g><g transform="translate(1036.3889058430993 491.55544281005916) rotate(0 75.70796966552734 22.5)"><text x="0" y="0" font-family="Virgil, Segoe UI Emoji" font-size="36px" fill="#1e1e1e" text-anchor="start" style="white-space: pre;" direction="ltr" dominant-baseline="text-before-edge">Handler2</text></g><g mask="url(#mask-NvMGH-rJrGEhMTb3BlsBU)" stroke-linecap="round"><g transform="translate(1196.0602050642713 556.9509403444267) rotate(0 163.63765342977445 50.445929317008165)"><path d="M0.74 -0.26 C55.37 16.74, 273.01 84.2, 327.61 100.92 M-0.34 -1.44 C54.12 15.83, 271.72 85.28, 326.39 102.33" stroke="#1e1e1e" stroke-width="1" fill="none"></path></g><g transform="translate(1196.0602050642713 556.9509403444267) rotate(0 163.63765342977445 50.445929317008165)"><path d="M295.99 102.75 C304.48 103.43, 311.54 102.85, 325.4 104.32 M295.95 103.31 C306.81 103.26, 318.95 101.62, 327.28 101.6" stroke="#1e1e1e" stroke-width="1" fill="none"></path></g><g transform="translate(1196.0602050642713 556.9509403444267) rotate(0 163.63765342977445 50.445929317008165)"><path d="M302.18 83.18 C308.75 89.43, 314.06 94.38, 325.4 104.32 M302.14 83.74 C310.86 90.99, 320.7 96.62, 327.28 101.6" stroke="#1e1e1e" stroke-width="1" fill="none"></path></g></g><mask id="mask-NvMGH-rJrGEhMTb3BlsBU"><rect x="0" y="0" fill="#fff" width="1624.193013214624" height="758.121110555156"></rect><rect x="1250.7226479578069" y="585.0360254497914" fill="#000" width="218.80792236328125" height="45" opacity="1"></rect></mask><g transform="translate(1250.722647957807 585.0360254497914) rotate(0 108.97521053623859 22.360844211643496)"><text x="109.40396118164062" y="0" font-family="Virgil, Segoe UI Emoji" font-size="36px" fill="#1e1e1e" text-anchor="middle" style="white-space: pre;" direction="ltr" dominant-baseline="text-before-edge">next handler</text></g><g transform="translate(1218.3890279134118 500.22206878662166) rotate(0 42.5159912109375 22.5)"><text x="0" y="0" font-family="Virgil, Segoe UI Emoji" font-size="36px" fill="#1e1e1e" text-anchor="start" style="white-space: pre;" direction="ltr" dominant-baseline="text-before-edge">+(or)</text></g><g stroke-linecap="round" transform="translate(1265.7222188313806 205.5555038452154) rotate(0 124.66677856445312 109.99998474121094)"><path d="M184.58 12.92 C197.2 16.85, 208.43 26.95, 217.82 36.47 C227.22 45.99, 235.84 58.12, 240.92 70.06 C246.01 82, 248.15 95.7, 248.35 108.13 C248.55 120.56, 246.52 133.06, 242.12 144.66 C237.72 156.26, 230.79 167.83, 221.97 177.72 C213.15 187.61, 201.46 197.4, 189.2 204 C176.94 210.6, 162.11 214.83, 148.42 217.33 C134.73 219.83, 121 220.9, 107.06 219.02 C93.13 217.14, 77.49 212.04, 64.79 206.07 C52.09 200.1, 40.07 192.44, 30.86 183.2 C21.66 173.97, 14.76 162.55, 9.56 150.66 C4.36 138.77, 0.23 124.48, -0.34 111.86 C-0.9 99.24, 1.42 86.55, 6.16 74.95 C10.9 63.34, 19.01 52.12, 28.08 42.23 C37.16 32.34, 48.74 22.29, 60.63 15.61 C72.53 8.93, 85.7 4.48, 99.45 2.15 C113.2 -0.18, 128.27 -0.48, 143.13 1.65 C157.98 3.77, 180.47 11.75, 188.59 14.91 C196.72 18.07, 192.73 18.79, 191.88 20.61 M165.22 6.36 C178.69 8.53, 191.84 15.83, 202.92 23.5 C214.01 31.18, 224.42 41.81, 231.76 52.42 C239.1 63.02, 244.16 74.76, 246.94 87.14 C249.71 99.51, 250.38 113.94, 248.39 126.67 C246.41 139.4, 241.81 152.42, 235.03 163.51 C228.25 174.59, 218.2 185.14, 207.73 193.19 C197.25 201.24, 185.21 207.43, 172.15 211.82 C159.09 216.21, 144.01 219.04, 129.36 219.52 C114.72 220, 97.83 218.42, 84.29 214.7 C70.74 210.98, 58.88 204.94, 48.08 197.18 C37.29 189.42, 27.13 178.86, 19.53 168.13 C11.93 157.39, 5.33 145.12, 2.47 132.76 C-0.38 120.4, 0.44 106.47, 2.4 93.97 C4.36 81.47, 7.91 68.97, 14.21 57.76 C20.52 46.56, 29.53 34.94, 40.21 26.74 C50.88 18.54, 64.59 12.94, 78.26 8.57 C91.94 4.19, 108.2 1.24, 122.25 0.5 C136.3 -0.23, 155.79 3.18, 162.54 4.15 C169.29 5.12, 163.17 4.18, 162.75 6.31" stroke="#1e1e1e" stroke-width="1" fill="none"></path></g><g transform="translate(1318.3889058430993 258.8887252807625) rotate(0 77.03997039794922 67.5)"><text x="0" y="0" font-family="Virgil, Segoe UI Emoji" font-size="36px" fill="#1e1e1e" text-anchor="start" style="white-space: pre;" direction="ltr" dominant-baseline="text-before-edge">Process </text><text x="0" y="45" font-family="Virgil, Segoe UI Emoji" font-size="36px" fill="#1e1e1e" text-anchor="start" style="white-space: pre;" direction="ltr" dominant-baseline="text-before-edge">    &amp;</text><text x="0" y="90" font-family="Virgil, Segoe UI Emoji" font-size="36px" fill="#1e1e1e" text-anchor="start" style="white-space: pre;" direction="ltr" dominant-baseline="text-before-edge"> return</text></g><g stroke-linecap="round"><g transform="translate(1161.0556538899743 424.22206878662166) rotate(0 58.072469847914704 -31.33735518455501)"><path d="M0.98 0.36 C20.13 -10.29, 96.97 -52.57, 116.11 -63.03 M0.04 -0.5 C18.88 -11.05, 95.17 -51.61, 114.87 -61.69" stroke="#1e1e1e" stroke-width="1" fill="none"></path></g><g transform="translate(1161.0556538899743 424.22206878662166) rotate(0 58.072469847914704 -31.33735518455501)"><path d="M95.25 -40.46 C101.96 -50.02, 111.08 -56.89, 112.97 -59.92 M93.79 -40.01 C99.47 -45.49, 103.44 -48.61, 115.11 -61.96" stroke="#1e1e1e" stroke-width="1" fill="none"></path></g><g transform="translate(1161.0556538899743 424.22206878662166) rotate(0 58.072469847914704 -31.33735518455501)"><path d="M85.73 -58.64 C96.37 -61.01, 109.3 -60.62, 112.97 -59.92 M84.28 -58.19 C92.05 -59.52, 98.19 -58.5, 115.11 -61.96" stroke="#1e1e1e" stroke-width="1" fill="none"></path></g></g><mask></mask></svg>